<svg width="29" height="24" viewBox="0 0 29 24" fill="none" xmlns="http://www.w3.org/2000/svg">
<path d="M0.398193 6C0.398193 2.68629 3.08449 0 6.39819 0H22.3982C25.7119 0 28.3982 2.68629 28.3982 6V18C28.3982 21.3137 25.7119 24 22.3982 24H6.39819C3.08449 24 0.398193 21.3137 0.398193 18V6Z" fill="white"/>
<path fill-rule="evenodd" clip-rule="evenodd" d="M22.3982 2H6.39819C4.18905 2 2.39819 3.79086 2.39819 6V18C2.39819 20.2091 4.18905 22 6.39819 22H22.3982C24.6073 22 26.3982 20.2091 26.3982 18V6C26.3982 3.79086 24.6073 2 22.3982 2ZM6.39819 0C3.08449 0 0.398193 2.68629 0.398193 6V18C0.398193 21.3137 3.08449 24 6.39819 24H22.3982C25.7119 24 28.3982 21.3137 28.3982 18V6C28.3982 2.68629 25.7119 0 22.3982 0H6.39819Z" fill="#33cccc"/>
<path d="M12.3982 9C12.3982 7.34315 13.7413 6 15.3982 6H28.3982V18H15.3982C13.7413 18 12.3982 16.6569 12.3982 15V9Z" fill="white"/>
<path fill-rule="evenodd" clip-rule="evenodd" d="M26.3982 8H15.3982C14.8459 8 14.3982 8.44772 14.3982 9V15C14.3982 15.5523 14.8459 16 15.3982 16H26.3982V8ZM15.3982 6C13.7413 6 12.3982 7.34315 12.3982 9V15C12.3982 16.6569 13.7413 18 15.3982 18H28.3982V6H15.3982Z" fill="#33cccc"/>
<path d="M17.3982 11.5C17.3982 11.2239 17.6221 11 17.8982 11H19.8982C20.1743 11 20.3982 11.2239 20.3982 11.5V12.5C20.3982 12.7761 20.1743 13 19.8982 13H17.8982C17.6221 13 17.3982 12.7761 17.3982 12.5V11.5Z" fill="#33cccc"/>
</svg>
