<svg width="25" height="24" viewBox="0 0 25 24" fill="none" xmlns="http://www.w3.org/2000/svg">
<path d="M24.6505 12C24.6505 18.6274 19.2779 24 12.6505 24C6.0231 24 0.650513 18.6274 0.650513 12C0.650513 5.37258 6.0231 0 12.6505 0C19.2779 0 24.6505 5.37258 24.6505 12Z" fill="white"/>
<path fill-rule="evenodd" clip-rule="evenodd" d="M12.6505 22C18.1734 22 22.6505 17.5228 22.6505 12C22.6505 6.47715 18.1734 2 12.6505 2C7.12767 2 2.65051 6.47715 2.65051 12C2.65051 17.5228 7.12767 22 12.6505 22ZM12.6505 24C19.2779 24 24.6505 18.6274 24.6505 12C24.6505 5.37258 19.2779 0 12.6505 0C6.0231 0 0.650513 5.37258 0.650513 12C0.650513 18.6274 6.0231 24 12.6505 24Z" fill="#33cccc"/>
<path d="M19.6505 11.5C19.6505 15.0899 16.7404 18 13.1505 18C9.56066 18 6.65051 15.0899 6.65051 11.5C6.65051 7.91015 9.56066 5 13.1505 5C16.7404 5 19.6505 7.91015 19.6505 11.5Z" fill="white"/>
<path fill-rule="evenodd" clip-rule="evenodd" d="M13.1505 16C15.6358 16 17.6505 13.9853 17.6505 11.5C17.6505 9.01472 15.6358 7 13.1505 7C10.6652 7 8.65051 9.01472 8.65051 11.5C8.65051 13.9853 10.6652 16 13.1505 16ZM13.1505 18C16.7404 18 19.6505 15.0899 19.6505 11.5C19.6505 7.91015 16.7404 5 13.1505 5C9.56066 5 6.65051 7.91015 6.65051 11.5C6.65051 15.0899 9.56066 18 13.1505 18Z" fill="#33cccc"/>
<path fill-rule="evenodd" clip-rule="evenodd" d="M17.6508 9.99986L22.6508 6.99986L23.6798 8.71484L18.6798 11.7148L17.6508 9.99986Z" fill="#33cccc"/>
<path fill-rule="evenodd" clip-rule="evenodd" d="M10.6505 1V7H8.65051V1H10.6505Z" fill="#33cccc"/>
<path fill-rule="evenodd" clip-rule="evenodd" d="M8.65016 13.9989L2.65016 15.9989L2.0177 14.1016L8.0177 12.1016L8.65016 13.9989Z" fill="#33cccc"/>
<path fill-rule="evenodd" clip-rule="evenodd" d="M15.6505 16V23H13.6505V16H15.6505Z" fill="#33cccc"/>
</svg>
