 <svg width="27" height="30" viewBox="0 0 27 30" fill="none" xmlns="http://www.w3.org/2000/svg">
<path d="M5 13C5 11.3431 6.34315 10 8 10H12C13.6569 10 15 11.3431 15 13V16C15 17.6569 13.6569 19 12 19H8C6.34315 19 5 17.6569 5 16V13Z" fill="white"/>
<path fill-rule="evenodd" clip-rule="evenodd" d="M12 12H8C7.44772 12 7 12.4477 7 13V16C7 16.5523 7.44772 17 8 17H12C12.5523 17 13 16.5523 13 16V13C13 12.4477 12.5523 12 12 12ZM8 10C6.34315 10 5 11.3431 5 13V16C5 17.6569 6.34315 19 8 19H12C13.6569 19 15 17.6569 15 16V13C15 11.3431 13.6569 10 12 10H8Z" fill="#3E3E3E"/>
<path fill-rule="evenodd" clip-rule="evenodd" d="M24.7929 23.6679C24.9142 23.5466 25 23.3459 25 23V10H27V23C27 23.6541 26.8358 24.4534 26.2071 25.0821C25.5784 25.7108 24.6541 26 23.5 26H16V24H23.5C24.3459 24 24.6716 23.7892 24.7929 23.6679Z" fill="#3E3E3E"/>
<path fill-rule="evenodd" clip-rule="evenodd" d="M2.20711 6.33211C2.08579 6.45343 2 6.65414 2 7V20H0V7C0 6.34586 0.164213 5.54657 0.792893 4.91789C1.42157 4.28921 2.34586 4 3.5 4H11V6H3.5C2.65414 6 2.32843 6.21079 2.20711 6.33211Z" fill="#3E3E3E"/>
<path fill-rule="evenodd" clip-rule="evenodd" d="M6.77805 20.3117C6.3979 19.9111 5.76495 19.8944 5.36432 20.2746L0.576186 24.8178L5.33679 29.6983C5.72243 30.0936 6.35555 30.1015 6.7509 29.7158C7.14624 29.3302 7.15411 28.6971 6.76847 28.3017L4.37241 25.8454H13C13.5523 25.8454 14 25.3976 14 24.8454C14 24.2931 13.5523 23.8454 13 23.8454H4.50673L6.74094 21.7254C7.14158 21.3453 7.15819 20.7123 6.77805 20.3117Z" fill="#3E3E3E"/>
<path fill-rule="evenodd" clip-rule="evenodd" d="M20.222 0.31169C20.6021 -0.0889455 21.235 -0.105557 21.6357 0.274588L26.4238 4.81783L21.6632 9.69827C21.2776 10.0936 20.6445 10.1015 20.2491 9.71584C19.8538 9.3302 19.8459 8.69709 20.2315 8.30174L22.6276 5.84536H14C13.4477 5.84536 13 5.39764 13 4.84536C13 4.29307 13.4477 3.84536 14 3.84536H22.4933L20.2591 1.72542C19.8584 1.34527 19.8418 0.712325 20.222 0.31169Z" fill="#3E3E3E"/>
</svg>
